<?xml version="1.0" encoding="utf-8"?>
<!-- Generator: Adobe Illustrator 26.3.1, SVG Export Plug-In . SVG Version: 6.00 Build 0)  -->
<svg version="1.1" id="Layer_1" xmlns="http://www.w3.org/2000/svg" xmlns:xlink="http://www.w3.org/1999/xlink" x="0px" y="0px"
	 viewBox="0 0 512 512" style="enable-background:new 0 0 512 512;" xml:space="preserve">
<style type="text/css">
	.st0{fill-rule:evenodd;clip-rule:evenodd;}
</style>
<g>
	<path class="st0" d="M424,460.8H88.02c-18.08,0-31.44-17.84-24.62-34.25C95.05,350.67,169.39,307.2,256,307.2
		c86.63,0,160.98,43.47,192.62,119.35C455.44,442.96,442.08,460.8,424,460.8 M151.47,153.6c0-56.48,46.91-102.4,104.53-102.4
		c57.65,0,104.53,45.93,104.53,102.4c0,56.47-46.88,102.4-104.53,102.4C198.37,256,151.47,210.07,151.47,153.6 M510.87,451.48
		c-19-85.99-78.42-149.45-156.64-178.25c41.45-32.69,65.62-85.56,56.73-143.44C400.67,62.64,343.64,8.91,274.81,1.07
		C179.79-9.75,99.2,62.69,99.2,153.6c0,48.38,22.89,91.49,58.59,119.63C79.55,302.03,20.15,365.49,1.13,451.48
		C-5.77,482.74,19.94,512,52.58,512h406.83C492.08,512,517.79,482.74,510.87,451.48"/>
</g>
</svg>
