<?xml version="1.0" encoding="utf-8"?>
<!-- Generator: Adobe Illustrator 24.1.1, SVG Export Plug-In . SVG Version: 6.00 Build 0)  -->
<svg version="1.1" id="Layer_1" xmlns="http://www.w3.org/2000/svg" xmlns:xlink="http://www.w3.org/1999/xlink" x="0px" y="0px"
	 viewBox="0 0 512 512" style="enable-background:new 0 0 512 512;" xml:space="preserve">
<g>
	<path d="M204.8,25.6v25.6c42.5,0,80.7,17.2,108.6,45c27.8,27.9,45,66.1,45,108.6c0,42.5-17.2,80.7-45,108.6
		c-27.9,27.8-66.1,45-108.6,45c-42.5,0-80.7-17.2-108.6-45c-27.8-27.9-45-66.1-45-108.6c0-42.5,17.2-80.7,45-108.6
		c27.9-27.8,66.1-45,108.6-45V25.6V0C91.7,0,0,91.7,0,204.8c0,113.1,91.7,204.8,204.8,204.8c113.1,0,204.8-91.7,204.8-204.8
		C409.6,91.7,317.9,0,204.8,0V25.6z"/>
	<path d="M504.5,468.3L350.9,314.7c-10-10-26.2-10-36.2,0c-10,10-10,26.2,0,36.2l153.6,153.6c10,10,26.2,10,36.2,0
		C514.5,494.5,514.5,478.3,504.5,468.3"/>
</g>
</svg>
